# Blender v2.67 (sub 0) OBJ File: ''
# www.blender.org
o Cube_Cube.001
v -1.000000 -1.000000 1.000000
v -1.000000 -1.000000 -1.000000
v 1.000000 -1.000000 -1.000000
v 1.000000 -1.000000 1.000000
v -1.000000 1.000000 1.000000
v -1.000000 1.000000 -1.000000
v 1.000000 1.000000 -1.000000
v 1.000000 1.000000 1.000000
v -1.000000 1.000000 1.000000
v 1.000000 1.000000 1.000000
v -1.000000 1.000000 -1.000000
v -1.000000 1.000000 1.000000
v -1.000000 -1.000000 -1.000000
v -1.000000 -1.000000 -1.000000
v -1.000000 -1.000000 1.000000
v -1.000000 -1.000000 1.000000
v 1.000000 1.000000 -1.000000
v -1.000000 1.000000 -1.000000
v 1.000000 -1.000000 -1.000000
v 1.000000 -1.000000 -1.000000
v 1.000000 1.000000 1.000000
v 1.000000 1.000000 -1.000000
v 1.000000 -1.000000 1.000000
v 1.000000 -1.000000 1.000000
vt 0.000100 0.000100
vt 0.999900 0.000100
vt 0.000100 0.999900
vt 0.999900 0.999900
vn -1.000000 0.000000 0.000000
vn 0.000000 0.000000 -1.000000
vn 1.000000 0.000000 0.000000
vn 0.000000 0.000000 1.000000
vn 0.000000 -1.000000 0.000000
vn 0.000000 0.999969 0.000000
vn 0.000000 1.000000 0.000000
s 1
f 5/1/1 6/2/1 1/3/1
f 11/1/2 7/2/2 13/3/2
f 17/4/3 8/3/3 4/1/3
f 21/4/4 9/3/4 15/1/4
f 16/3/5 14/1/5 20/2/5
f 22/3/6 18/1/7 12/2/6
f 6/2/1 2/4/1 1/3/1
f 7/2/2 3/4/2 13/3/2
f 19/2/3 17/4/3 4/1/3
f 23/2/4 21/4/4 15/1/4
f 24/4/5 16/3/5 20/2/5
f 10/4/7 22/3/6 12/2/6
