# Blender v2.67 (sub 0) OBJ File: ''
# www.blender.org
o Icosphere
v 0.000000 -0.131273 0.000000
v 1.365463 0.480787 0.992055
v -0.521550 0.480787 1.605194
v -1.687802 0.480791 0.000000
v -0.521550 0.480787 -1.605194
v 1.365463 0.480787 -0.992055
v 0.521550 1.471144 1.605194
v -1.365463 1.471144 0.992055
v -1.365463 1.471144 -0.992055
v 0.521550 1.471144 -1.605194
v 1.687802 1.471140 0.000000
v 0.000000 2.083204 0.000000
v 0.802593 0.034089 0.583111
v 0.496039 0.393849 1.526623
v -0.306557 0.034088 0.943502
v 0.802593 0.034089 -0.583111
v 1.605191 0.393851 0.000000
v -1.298629 0.393850 0.943505
v -0.992064 0.034092 0.000000
v -1.298629 0.393850 -0.943505
v -0.306557 0.034088 -0.943502
v 0.496039 0.393849 -1.526623
v 1.794667 0.975965 -0.583114
v 1.794667 0.975965 0.583114
v 1.109164 0.975965 1.526633
v 0.000000 0.975965 1.887022
v -1.109164 0.975965 1.526633
v -1.794667 0.975965 0.583114
v -1.794667 0.975965 -0.583114
v -1.109164 0.975965 -1.526633
v 0.000000 0.975965 -1.887022
v 1.109164 0.975965 -1.526633
v 1.298629 1.558081 0.943505
v -0.496039 1.558082 1.526623
v -1.605191 1.558080 0.000000
v -0.496039 1.558082 -1.526623
v 1.298629 1.558081 -0.943505
v 0.992064 1.917839 0.000000
v 0.306557 1.917842 0.943502
v -0.802593 1.917842 0.583111
v -0.802593 1.917842 -0.583111
v 0.306557 1.917842 -0.943502
vt 0.500722 0.500546
vt 0.292205 0.787548
vt 0.163332 0.390923
vt 0.107661 1.041553
vt 0.500722 1.124214
vt 0.500722 0.145791
vt 0.838111 0.390923
vt 0.709239 0.787548
vt 0.213849 1.374688
vt -0.135268 0.293904
vt -0.092419 0.693273
vt -0.419284 0.497834
vt 0.500722 -0.168174
vt 0.134141 -0.004011
vt 0.219007 -0.375269
vt 1.136710 0.293904
vt 0.867302 -0.004010
vt 1.246613 -0.038025
vt 0.893782 1.041553
vt 1.093862 0.693272
vt 1.243428 1.043505
vt -0.241985 1.043505
vt -0.245170 -0.038026
vt 0.782436 -0.375268
vt 1.420725 0.497833
vt 0.787595 1.374687
vt -0.139565 0.287127
vt 0.129844 -0.010788
vt 0.159035 0.384146
vt 0.103366 1.034775
vt -0.096714 0.686496
vt 0.287909 0.780771
vt 0.889485 1.034775
vt 0.496425 1.117435
vt 0.704942 0.780771
vt 1.132416 0.287127
vt 1.089565 0.686496
vt 0.833815 0.384146
vt 0.496425 -0.174952
vt 0.863006 -0.010789
vt 0.496425 0.139013
vt 0.214710 -0.382046
vt 0.778140 -0.382047
vt -0.423579 0.491058
vt -0.249468 -0.044803
vt 0.209553 1.367909
vt -0.246280 1.036728
vt 1.239131 1.036728
vt 0.783297 1.367909
vt 1.242318 -0.044804
vt 1.416430 0.491058
vt 0.496425 0.493769
vn 0.000000 -1.000000 0.000000
vn 0.294839 -0.931211 0.214209
vn -0.112613 -0.931211 0.346599
vn 0.649892 -0.595508 0.472182
vn 0.740959 -0.671529 0.000000
vn -0.364452 -0.931211 0.000000
vn -0.112613 -0.931211 -0.346599
vn 0.294839 -0.931211 -0.214209
vn 0.951048 0.000000 0.309000
vn -0.248238 -0.595508 0.764000
vn 0.228950 -0.671529 0.704703
vn 0.000000 0.000000 1.000000
vn -0.803308 -0.595508 0.000000
vn -0.599445 -0.671529 0.435530
vn -0.951048 0.000000 0.309000
vn -0.248238 -0.595508 -0.764000
vn -0.599445 -0.671529 -0.435530
vn -0.587756 0.000000 -0.809015
vn 0.649892 -0.595508 -0.472182
vn 0.228950 -0.671529 -0.704703
vn 0.587756 0.000000 -0.809015
vn 0.587756 0.000000 0.809015
vn -0.587756 0.000000 0.809015
vn -0.951048 0.000000 -0.309000
vn 0.000000 0.000000 -1.000000
vn 0.951048 0.000000 -0.309000
vn 0.248238 0.595508 0.764000
vn 0.599445 0.671529 0.435530
vn 0.112613 0.931211 0.346599
vn -0.649892 0.595508 0.472182
vn -0.228950 0.671529 0.704703
vn -0.294839 0.931211 0.214209
vn -0.649892 0.595508 -0.472182
vn -0.740959 0.671529 0.000000
vn -0.294839 0.931211 -0.214209
vn 0.248238 0.595508 -0.764000
vn -0.228950 0.671529 -0.704703
vn 0.112613 0.931211 -0.346599
vn 0.803308 0.595508 0.000000
vn 0.599445 0.671529 -0.435530
vn 0.364452 0.931211 0.000000
vn 0.000000 1.000000 0.000000
s 1
f 1/1/1 13/2/2 15/3/3
f 2/4/4 13/2/2 17/5/5
f 1/1/1 15/3/3 19/6/6
f 1/1/1 19/6/6 21/7/7
f 1/1/1 21/7/7 16/8/8
f 2/4/4 17/5/5 24/9/9
f 3/10/10 14/11/11 26/12/12
f 4/13/13 18/14/14 28/15/15
f 5/16/16 20/17/17 30/18/18
f 6/19/19 22/20/20 32/21/21
f 2/4/4 24/9/9 25/22/22
f 3/10/10 26/12/12 27/23/23
f 4/13/13 28/15/15 29/24/24
f 5/16/16 30/18/18 31/25/25
f 6/19/19 32/21/21 23/26/26
f 7/27/27 33/28/28 39/29/29
f 8/30/30 34/31/31 40/32/32
f 9/33/33 35/34/34 41/35/35
f 10/36/36 36/37/37 42/38/38
f 11/39/39 37/40/40 38/41/41
f 15/3/3 14/11/11 3/10/10
f 15/3/3 13/2/2 14/11/11
f 13/2/2 2/4/4 14/11/11
f 17/5/5 16/8/8 6/19/19
f 17/5/5 13/2/2 16/8/8
f 13/2/2 1/1/1 16/8/8
f 19/6/6 18/14/14 4/13/13
f 19/6/6 15/3/3 18/14/14
f 15/3/3 3/10/10 18/14/14
f 21/7/7 20/17/17 5/16/16
f 21/7/7 19/6/6 20/17/17
f 19/6/6 4/13/13 20/17/17
f 16/8/8 22/20/20 6/19/19
f 16/8/8 21/7/7 22/20/20
f 21/7/7 5/16/16 22/20/20
f 24/42/9 23/43/26 11/39/39
f 24/9/9 17/5/5 23/26/26
f 17/5/5 6/19/19 23/26/26
f 26/44/12 25/45/22 7/27/27
f 26/12/12 14/11/11 25/22/22
f 14/11/11 2/4/4 25/22/22
f 28/46/15 27/47/23 8/30/30
f 28/15/15 18/14/14 27/23/23
f 18/14/14 3/10/10 27/23/23
f 30/48/18 29/49/24 9/33/33
f 30/18/18 20/17/17 29/24/24
f 20/17/17 4/13/13 29/24/24
f 32/50/21 31/51/25 10/36/36
f 32/21/21 22/20/20 31/25/25
f 22/20/20 5/16/16 31/25/25
f 25/45/22 33/28/28 7/27/27
f 25/45/22 24/42/9 33/28/28
f 24/42/9 11/39/39 33/28/28
f 27/47/23 34/31/31 8/30/30
f 27/47/23 26/44/12 34/31/31
f 26/44/12 7/27/27 34/31/31
f 29/49/24 35/34/34 9/33/33
f 29/49/24 28/46/15 35/34/34
f 28/46/15 8/30/30 35/34/34
f 31/51/25 36/37/37 10/36/36
f 31/51/25 30/48/18 36/37/37
f 30/48/18 9/33/33 36/37/37
f 23/43/26 37/40/40 11/39/39
f 23/43/26 32/50/21 37/40/40
f 32/50/21 10/36/36 37/40/40
f 39/29/29 38/41/41 12/52/42
f 39/29/29 33/28/28 38/41/41
f 33/28/28 11/39/39 38/41/41
f 40/32/32 39/29/29 12/52/42
f 40/32/32 34/31/31 39/29/29
f 34/31/31 7/27/27 39/29/29
f 41/35/35 40/32/32 12/52/42
f 41/35/35 35/34/34 40/32/32
f 35/34/34 8/30/30 40/32/32
f 42/38/38 41/35/35 12/52/42
f 42/38/38 36/37/37 41/35/35
f 36/37/37 9/33/33 41/35/35
f 38/41/41 42/38/38 12/52/42
f 38/41/41 37/40/40 42/38/38
f 37/40/40 10/36/36 42/38/38
