# Blender v2.67 (sub 0) OBJ File: 'toon rocks.blend'
# www.blender.org
o Sphere
v -1.518482 1.065867 0.000000
v -1.893516 0.805937 0.000000
v -1.518482 0.257507 0.000000
v -0.842694 0.077630 0.000000
v -0.000000 0.013433 0.000000
v -0.525411 1.245744 -0.763202
v -0.946758 1.065867 -1.375242
v -1.180588 0.805937 -1.714899
v -1.180588 0.517437 -1.714899
v -0.946758 0.257507 -1.375242
v -0.525411 0.077630 -0.763202
v 0.187517 1.245744 -0.951697
v 0.337894 1.065867 -1.714899
v 0.421347 0.805937 -2.138444
v 0.421347 0.517437 -2.138444
v 0.337894 0.257507 -1.714899
v 0.187517 0.077630 -0.951697
v -0.000001 1.309941 0.000000
v 0.759240 1.245744 -0.423545
v 1.368104 1.065867 -0.763202
v 1.705998 0.805937 -0.951697
v 1.705998 0.517437 -0.951697
v 1.368104 0.257507 -0.763202
v 0.759241 0.077630 -0.423545
v 0.759240 1.245744 0.423545
v 1.368104 1.065867 0.763202
v 1.705998 0.805937 0.951697
v 1.705998 0.517437 0.951697
v 1.368104 0.257507 0.763202
v 0.759240 0.077630 0.423545
v 0.187517 1.245744 0.951697
v 0.337894 1.065867 1.714899
v 0.421346 0.805937 2.138444
v 0.421346 0.517437 2.138444
v 0.337894 0.257507 1.714899
v 0.187517 0.077630 0.951697
v -0.525411 1.245744 0.763202
v -0.946758 1.065867 1.375242
v -1.180588 0.805937 1.714899
v -1.180588 0.517437 1.714899
v -0.946758 0.257507 1.375242
v -0.525411 0.077630 0.763202
v -0.842694 1.245744 -0.000000
v -1.893516 0.517437 -0.000000
v -0.960111 1.982760 0.402990
v -1.197239 1.800861 0.563019
v -0.960111 1.417068 0.402990
v -0.532822 1.291190 0.114627
v -0.000000 1.246264 -0.244956
v -0.656087 2.108639 -0.441382
v -1.182229 1.982760 -0.598904
v -1.474215 1.800861 -0.686322
v -1.474215 1.598968 -0.686322
v -1.182229 1.417068 -0.598904
v -0.656088 1.291190 -0.441382
v -0.285306 2.108639 -0.849478
v -0.514104 1.982760 -1.334267
v -0.641077 1.800861 -1.603305
v -0.641077 1.598968 -1.603305
v -0.514104 1.417068 -1.334267
v -0.285306 1.291190 -0.849478
v -0.000000 2.153564 -0.244955
v 0.300316 2.108639 -0.802356
v 0.541151 1.982760 -1.249357
v 0.674805 1.800861 -1.497423
v 0.674805 1.598968 -1.497423
v 0.541151 1.417068 -1.249357
v 0.300316 1.291190 -0.802356
v 0.659794 2.108639 -0.335500
v 1.188908 1.982760 -0.408111
v 1.482545 1.800861 -0.448407
v 1.482545 1.598968 -0.448407
v 1.188908 1.417068 -0.408111
v 0.659794 1.291190 -0.335500
v 0.522433 2.108639 0.199538
v 0.941393 1.982760 0.555994
v 1.173898 1.800861 0.753812
v 1.173898 1.598968 0.753812
v 0.941393 1.417068 0.555994
v 0.522433 1.291190 0.199538
v -0.008331 2.108639 0.399863
v -0.015011 1.982760 0.916968
v -0.018718 1.800861 1.203939
v -0.018718 1.598968 1.203939
v -0.015011 1.417068 0.916968
v -0.008331 1.291190 0.399863
v -0.532822 2.108639 0.114627
v -1.197239 1.598968 0.563019
v -0.551450 2.538809 -0.644133
v -0.700675 2.447062 -0.774905
v -0.580725 2.225263 -0.654658
v -0.335307 2.139141 -0.427455
v -0.023477 2.093850 -0.142053
v 0.072433 2.579184 -0.559856
v 0.107043 2.515306 -0.910118
v 0.120452 2.417755 -1.106584
v 0.110004 2.305851 -1.110341
v 0.077768 2.201761 -0.920644
v 0.030129 2.126098 -0.575066
v 0.399253 2.560608 -0.380770
v 0.695953 2.481833 -0.587416
v 0.854811 2.376015 -0.704181
v 0.844362 2.264112 -0.707938
v 0.666678 2.168288 -0.597942
v 0.356949 2.107522 -0.395980
v 0.023476 2.596738 -0.125171
v 0.441355 2.550488 -0.009842
v 0.771818 2.463597 0.080973
v 0.949413 2.353274 0.129287
v 0.938964 2.241371 0.125530
v 0.742543 2.150051 0.070447
v 0.399051 2.097401 -0.025052
v 0.167035 2.556443 0.273611
v 0.277510 2.474328 0.591738
v 0.333021 2.366657 0.766201
v 0.322573 2.254753 0.762444
v 0.248235 2.160783 0.581213
v 0.124731 2.103357 0.258401
v -0.217138 2.573991 0.256144
v -0.414746 2.505947 0.560263
v -0.530209 2.406085 0.726952
v -0.540657 2.294182 0.723195
v -0.444021 2.192402 0.549737
v -0.259442 2.120904 0.240934
v -0.421874 2.589916 -0.049091
v -0.783668 2.534644 0.010249
v -0.990247 2.441868 0.041095
v -1.000695 2.329965 0.037338
v -0.812943 2.221098 -0.000277
v -0.464178 2.136829 -0.064301
v -0.293003 2.592227 -0.412245
v -0.711123 2.335159 -0.778662
v 0.031584 2.962156 0.047331
v -0.031584 2.570203 -0.047331
v 0.257292 2.926573 -0.188471
v 0.384723 2.829726 -0.352284
v 0.365203 2.708606 -0.381536
v 0.206188 2.609477 -0.265054
v 0.280347 2.885569 0.218609
v 0.422028 2.763380 0.306386
v 0.402508 2.642260 0.277134
v 0.229244 2.568473 0.142026
v -0.048716 2.898680 0.376496
v -0.110407 2.784594 0.561853
v -0.129927 2.663474 0.532601
v -0.099819 2.581584 0.299914
v -0.275144 2.947788 0.066996
v -0.476775 2.864052 0.061071
v -0.496295 2.742931 0.031819
v -0.326247 2.630691 -0.009587
v -0.086021 2.965027 -0.282173
v -0.170768 2.891945 -0.503897
v -0.190288 2.770824 -0.533149
v -0.137124 2.647930 -0.358756
vt 0.639996 0.281407
vt 0.662631 0.290715
vt 0.623596 0.321720
vt 0.491119 0.199447
vt 0.461617 0.193377
vt 0.490928 0.137241
vt 0.461464 0.143491
vt 0.490809 0.098456
vt 0.553153 0.143210
vt 0.523651 0.137140
vt 0.523532 0.098355
vt 0.641111 0.198997
vt 0.624740 0.180804
vt 0.662694 0.154224
vt 0.618333 0.298614
vt 0.574985 0.310679
vt 0.754631 0.304778
vt 0.725168 0.311029
vt 0.724977 0.248823
vt 0.636718 0.155957
vt 0.640996 0.109435
vt 0.692444 0.311129
vt 0.692253 0.248923
vt 0.591356 0.292487
vt 0.553401 0.265907
vt 0.662942 0.305059
vt 0.624676 0.131101
vt 0.597683 0.124952
vt 0.692134 0.210138
vt 0.579378 0.267640
vt 0.575099 0.221117
vt 0.662789 0.255174
vt 0.662694 0.224071
vt 0.754478 0.254892
vt 0.724858 0.210038
vt 0.523866 0.339223
vt 0.491142 0.339323
vt 0.491023 0.300538
vt 0.591419 0.242783
vt 0.618412 0.236635
vt 0.461617 0.325572
vt 0.461522 0.294468
vt 0.553306 0.325290
vt 0.553211 0.294187
vt 0.592357 0.098355
vt 0.576065 0.142142
vt 0.623739 0.210038
vt 0.640031 0.253824
vt 0.461369 0.244583
vt 0.523747 0.300438
vt 0.553057 0.244302
vt 0.553401 0.129329
vt 0.576100 0.169725
vt 0.523556 0.238232
vt 0.553306 0.193096
vt 0.523842 0.199346
vt 0.611417 0.268249
vt 0.592499 0.210038
vt 0.597762 0.186931
vt 0.604679 0.156567
vt 0.491238 0.238232
vt 0.461712 0.224480
vt 0.553401 0.224199
vt 0.523961 0.238131
vt 0.553465 0.179033
vt 0.662694 0.241012
vt 0.537103 0.917737
vt 0.536265 0.952152
vt 0.483091 0.924564
vt 0.396312 0.812846
vt 0.361404 0.795195
vt 0.396166 0.765405
vt 0.361287 0.757150
vt 0.361092 0.693611
vt 0.469678 0.756818
vt 0.434850 0.765286
vt 0.469483 0.693278
vt 0.591553 0.662287
vt 0.614307 0.684422
vt 0.607131 0.718827
vt 0.434607 0.686054
vt 0.507594 0.902427
vt 0.500215 0.868022
vt 0.434450 0.634694
vt 0.578624 0.724284
vt 0.615512 0.773999
vt 0.395923 0.686173
vt 0.395765 0.634812
vt 0.469795 0.862568
vt 0.506389 0.812849
vt 0.627603 0.746418
vt 0.660306 0.746416
vt 0.469795 0.847903
vt 0.469676 0.886587
vt 0.396138 0.886362
vt 0.520523 0.840430
vt 0.553226 0.840428
vt 0.462287 0.921418
vt 0.403314 0.921237
vt 0.462619 0.813027
vt 0.403647 0.812846
vt 0.543824 0.812728
vt 0.505140 0.812846
vt 0.504982 0.761486
vt 0.565317 0.812846
vt 0.573698 0.868018
vt 0.470233 0.795450
vt 0.470106 0.754262
vt 0.578624 0.795117
vt 0.578497 0.753930
vt 0.674440 0.773997
vt 0.680614 0.718824
vt 0.602205 0.862562
vt 0.589276 0.924559
vt 0.504739 0.682254
vt 0.543666 0.761368
vt 0.543423 0.682135
vt 0.711034 0.724278
vt 0.697738 0.662282
vt 0.469795 0.794863
vt 0.434996 0.812728
vt 0.537317 0.876426
vt 0.644564 0.634694
vt 0.643726 0.669109
vt 0.643512 0.710420
vt 0.673235 0.684419
vt 0.566522 0.902424
vt 0.469911 0.690723
vt 0.469795 0.652678
vt 0.578302 0.690390
vt 0.578186 0.652345
vt 0.543278 0.634694
vt 0.092060 0.793836
vt 0.081484 0.780281
vt 0.113255 0.775323
vt 0.154156 0.947927
vt 0.138718 0.940176
vt 0.154610 0.922224
vt 0.139083 0.919564
vt 0.139093 0.885245
vt 0.187011 0.913853
vt 0.171716 0.920186
vt 0.187022 0.879534
vt 0.138718 0.808961
vt 0.155278 0.810527
vt 0.163106 0.827693
vt 0.171729 0.877390
vt 0.109692 0.791085
vt 0.123823 0.803586
vt 0.171290 0.849728
vt 0.152824 0.839893
vt 0.184519 0.849728
vt 0.154624 0.879428
vt 0.138718 0.797849
vt 0.138698 0.830897
vt 0.154185 0.851766
vt 0.180696 0.833151
vt 0.209937 0.831060
vt 0.203376 0.849728
vt 0.220530 0.851279
vt 0.218603 0.890639
vt 0.123812 0.821926
vt 0.113211 0.849580
vt 0.236630 0.856669
vt 0.188567 0.852320
vt 0.201450 0.889087
vt 0.104865 0.849580
vt 0.122002 0.851327
vt 0.106566 0.877509
vt 0.109668 0.832294
vt 0.081448 0.839830
vt 0.235085 0.888233
vt 0.236672 0.908196
vt 0.089320 0.857421
vt 0.194801 0.822791
vt 0.194801 0.804415
vt 0.092041 0.826884
vt 0.084205 0.809768
vt 0.123702 0.879257
vt 0.138701 0.884715
vt 0.123724 0.921951
vt 0.090684 0.879819
vt 0.090701 0.914057
vt 0.209936 0.797947
vt 0.184518 0.775323
vt 0.106587 0.920204
vt 0.186646 0.934466
vt 0.171261 0.945889
vt 0.105102 0.811168
vt 0.152823 0.780225
vt 0.163106 0.794580
vt 0.176029 0.812241
vt 0.180695 0.791860
vt 0.138718 0.918953
vt 0.137376 0.939250
vt 0.089359 0.934354
vt 0.122050 0.947261
vt 0.067328 0.808989
vt 0.214630 0.277058
vt 0.192136 0.287840
vt 0.219300 0.248343
vt 0.163875 0.290713
vt 0.199693 0.241378
vt 0.140643 0.284580
vt 0.171433 0.244251
vt 0.149621 0.328421
vt 0.129591 0.339495
vt 0.144301 0.300982
vt 0.102408 0.342266
vt 0.078455 0.335674
vt 0.073135 0.308235
vt 0.093800 0.297869
vt 0.217510 0.230792
vt 0.198441 0.241497
vt 0.205689 0.203623
vt 0.170170 0.244342
vt 0.143496 0.238242
vt 0.131675 0.211072
vt 0.179314 0.197536
vt 0.226737 0.321265
vt 0.202609 0.332161
vt 0.193010 0.287808
vt 0.174360 0.334985
vt 0.152782 0.328658
vt 0.164761 0.290632
vt 0.115697 0.225345
vt 0.091847 0.241733
vt 0.093639 0.212850
vt 0.067459 0.255344
vt 0.108918 0.390867
vt 0.099324 0.365138
vt 0.155508 0.386144
vt 0.097853 0.252293
vt 0.113664 0.269979
vt 0.093101 0.280078
vt 0.101108 0.342400
vt 0.145914 0.360415
vt 0.119247 0.203641
vt 0.118060 0.294372
vt 0.133282 0.226833
vt 0.138238 0.275422
vt 0.116348 0.250374
vt 0.125749 0.249415
vt 0.461369 0.112388
vt 0.553057 0.112107
vt 0.754383 0.223789
vt 0.490832 0.238332
vt 0.469357 0.652091
vt 0.360966 0.652423
vt 0.396257 0.847677
vt 0.504593 0.634813
vt 0.186670 0.857351
vt 0.138742 0.863061
vt 0.187022 0.883884
vt 0.220582 0.915533
vt 0.104913 0.945514
vt 0.145314 0.255865
vt 0.120983 0.295099
vt 0.151043 0.200381
vt 0.220805 0.293853
vt 0.146849 0.301246
vt 0.070357 0.208611
vt 0.129902 0.339481
vn -0.189489 -0.981872 0.000000
vn -0.453780 -0.891079 0.000000
vn -0.292764 -0.902280 -0.316416
vn -0.906278 0.422651 0.000000
vn -0.453780 0.891079 0.000000
vn -0.588733 0.432356 -0.682913
vn -0.292764 0.902280 -0.316416
vn 0.214637 0.436567 -0.873653
vn -0.588733 -0.432356 -0.682913
vn 0.214637 -0.436567 -0.873653
vn -0.123081 0.983917 -0.129429
vn 0.106662 0.908902 -0.403088
vn -0.123081 -0.983917 -0.129429
vn 0.106662 -0.908902 -0.403088
vn 0.827052 -0.425916 -0.366802
vn 0.044954 0.985168 -0.165471
vn 0.413007 0.894436 -0.171270
vn 0.827052 0.425916 -0.366802
vn 0.044954 -0.985168 -0.165471
vn 0.413007 -0.894436 -0.171270
vn 0.172857 0.982452 -0.069643
vn 0.172857 0.982452 0.069643
vn 0.827052 0.425916 0.366802
vn 0.172857 -0.982452 -0.069643
vn 0.413007 -0.894436 0.171270
vn 0.413007 0.894436 0.171270
vn 0.827052 -0.425916 0.366802
vn 0.214637 0.436567 0.873653
vn 0.172857 -0.982452 0.069643
vn 0.044954 -0.985168 0.165471
vn 0.106662 0.908902 0.403088
vn 0.106662 -0.908902 0.403088
vn 0.044954 0.985168 0.165471
vn -0.123081 -0.983917 0.129429
vn -0.292764 0.902280 0.316416
vn 0.214637 -0.436567 0.873653
vn -0.292764 -0.902280 0.316416
vn -0.123081 0.983917 0.129429
vn -0.588733 -0.432356 0.682913
vn -0.906278 -0.422651 0.000000
vn 0.000000 -1.000000 0.000000
vn -0.189489 0.981872 0.000000
vn 0.000000 1.000000 0.000000
vn -0.588733 0.432356 0.682913
vn -0.139348 -0.984252 0.108676
vn -0.339488 -0.903409 0.261788
vn -0.398938 -0.911252 -0.102237
vn -0.720969 0.434339 0.539903
vn -0.339488 0.903409 0.261788
vn -0.867397 0.440168 -0.232002
vn -0.398938 0.911252 -0.102237
vn -0.147526 0.908078 -0.391919
vn -0.867397 -0.440168 -0.232002
vn -0.147526 -0.908078 -0.391919
vn -0.163488 0.985656 -0.041231
vn -0.059389 0.985076 -0.161382
vn -0.333354 -0.438032 -0.834834
vn -0.163488 -0.985656 -0.041231
vn -0.059389 -0.985076 -0.161382
vn 0.430006 -0.432875 -0.792261
vn 0.206488 0.901761 -0.379650
vn -0.333354 0.438032 -0.834834
vn 0.430006 0.432875 -0.792261
vn 0.206488 -0.901761 -0.379650
vn 0.085269 0.983947 -0.156652
vn 0.168065 0.984985 -0.038728
vn 0.881375 0.437696 -0.177679
vn 0.085269 -0.983947 -0.156652
vn 0.168065 -0.984985 -0.038728
vn 0.409742 0.907620 -0.091220
vn 0.409742 -0.907620 -0.091220
vn 0.881375 -0.437696 -0.177679
vn 0.669515 0.440291 0.598193
vn 0.124210 -0.985717 0.113651
vn 0.304361 0.911466 0.276711
vn 0.304361 -0.911466 0.276711
vn 0.124210 0.985717 0.113651
vn -0.034639 -0.903775 0.426527
vn -0.059114 0.434645 0.898648
vn 0.669515 -0.440291 0.598193
vn -0.059114 -0.434645 0.898648
vn -0.034639 0.903775 0.426527
vn -0.720969 -0.434339 0.539903
vn 0.000000 -0.999969 0.000000
vn -0.139348 0.984252 0.108676
vn -0.015290 0.984313 0.175695
vn -0.015290 -0.984313 0.175695
vn -0.151738 -0.980255 -0.126560
vn -0.313852 -0.906186 -0.283364
vn -0.027924 -0.920835 -0.388897
vn -0.607257 0.525132 -0.596179
vn -0.220771 0.946379 -0.235786
vn 0.083316 0.484359 -0.870876
vn 0.060305 0.936827 -0.344523
vn 0.341990 0.922575 -0.178564
vn 0.027314 -0.441633 -0.896756
vn 0.248970 -0.943480 -0.218726
vn 0.050325 0.990966 -0.124149
vn 0.162603 0.985015 -0.057131
vn 0.700919 -0.504379 -0.504227
vn -0.038942 -0.984893 -0.168676
vn 0.072481 -0.992248 -0.100864
vn 0.803400 -0.531632 0.268044
vn 0.393384 0.907682 0.146092
vn 0.764244 0.426923 -0.483352
vn 0.297647 -0.949339 0.100589
vn 0.870357 0.393902 0.295389
vn 0.183020 0.980438 0.072329
vn 0.184454 0.910855 0.369152
vn 0.353313 0.413709 0.839015
vn 0.092380 -0.995331 0.027619
vn 0.094546 -0.941954 0.322062
vn 0.295602 -0.508438 0.808740
vn -0.464705 -0.455519 0.759270
vn 0.011292 -0.993225 0.115543
vn -0.216987 -0.930479 0.295053
vn -0.127415 0.933073 0.336283
vn 0.100894 0.981842 0.160527
vn -0.023255 0.988708 0.147984
vn -0.112766 -0.988128 0.104038
vn -0.187658 -0.982208 -0.006623
vn -0.405835 0.474349 0.781182
vn -0.841945 0.524857 0.124943
vn -0.405072 -0.914060 0.019227
vn -0.309244 0.948973 0.061373
vn -0.908689 -0.404767 0.101993
vn -0.670186 -0.396802 -0.627186
vn -0.044771 -0.998749 -0.022217
vn -0.061556 0.994751 -0.081484
vn 0.044771 0.998749 0.022217
vn -0.097018 0.994568 0.037446
vn 0.196265 -0.930540 -0.309122
vn 0.639454 -0.429670 -0.637532
vn 0.221534 -0.973113 0.062685
vn 0.745567 0.451949 -0.489731
vn 0.697317 -0.615131 0.367840
vn 0.371715 0.922391 -0.104892
vn 0.813135 0.265450 0.517991
vn -0.178442 -0.959685 0.217017
vn 0.402966 0.874752 0.269021
vn -0.002594 0.903836 0.427839
vn -0.168218 0.324961 0.930631
vn -0.281381 -0.564898 0.775689
vn -0.450026 -0.889523 -0.078646
vn -0.271310 0.954436 0.123997
vn -0.941740 -0.336283 0.001709
vn -0.389233 -0.263222 -0.882717
vn -0.830958 0.538560 0.139348
vn -0.277993 0.628163 -0.726676
vn -0.086520 -0.991455 -0.097415
vn -0.235206 -0.881191 -0.410047
vn -0.054750 0.978668 -0.197974
vn 0.086825 0.991455 0.097232
s 1
f 4/1/1 3/2/2 10/3/3
f 2/4/4 1/5/5 8/6/6
f 8/6/6 7/7/7 14/8/8
f 10/9/3 9/10/9 15/11/10
f 7/12/7 6/13/11 13/14/12
f 9/10/9 8/6/6 15/11/10
f 11/15/13 10/3/3 16/16/14
f 16/17/14 15/18/10 22/19/15
f 13/14/12 12/20/16 20/21/17
f 15/18/10 14/22/8 21/23/18
f 17/24/19 16/16/14 23/25/20
f 14/22/8 13/26/12 21/23/18
f 20/21/17 19/27/21 25/28/22
f 22/19/15 21/23/18 27/29/23
f 24/30/24 23/25/20 29/31/25
f 21/23/18 20/32/17 26/33/26
f 23/34/20 22/19/15 28/35/27
f 28/36/27 27/37/23 33/38/28
f 30/39/29 29/31/25 36/40/30
f 27/37/23 26/41/26 32/42/31
f 29/43/25 28/36/27 35/44/32
f 26/45/26 25/28/22 31/46/33
f 36/40/30 35/47/32 42/48/34
f 33/38/28 32/42/31 38/49/35
f 35/44/32 34/50/36 41/51/37
f 32/52/31 31/46/33 37/53/38
f 34/50/36 33/38/28 40/54/39
f 3/55/2 44/56/40 9/10/9
f 5/57/41 4/1/1 11/15/13
f 1/58/5 43/59/42 7/12/7
f 44/56/40 2/4/4 9/10/9
f 43/59/42 18/60/43 6/13/11
f 5/57/41 11/15/13 17/24/19
f 6/13/11 18/60/43 12/20/16
f 5/57/41 17/24/19 24/30/24
f 12/20/16 18/60/43 19/27/21
f 5/57/41 24/30/24 30/39/29
f 19/27/21 18/60/43 25/28/22
f 25/28/22 18/60/43 31/46/33
f 5/57/41 30/39/29 36/40/30
f 31/46/33 18/60/43 37/53/38
f 5/57/41 36/40/30 42/48/34
f 37/53/38 18/60/43 43/59/42
f 39/61/44 38/62/35 1/5/5
f 41/63/37 40/64/39 3/55/2
f 5/57/41 42/48/34 4/1/1
f 38/65/35 37/53/38 43/59/42
f 40/64/39 39/61/44 44/56/40
f 42/48/34 41/66/37 4/1/1
f 48/67/45 47/68/46 54/69/47
f 46/70/48 45/71/49 52/72/50
f 52/72/50 51/73/51 57/74/52
f 54/75/47 53/76/53 60/77/54
f 51/78/51 50/79/55 56/80/56
f 53/76/53 52/72/50 59/81/57
f 55/82/58 54/69/47 61/83/59
f 60/77/54 59/81/57 66/84/60
f 57/85/52 56/80/56 64/86/61
f 59/81/57 58/87/62 65/88/63
f 61/83/59 60/89/54 67/90/64
f 58/87/62 57/74/52 65/88/63
f 64/86/61 63/91/65 69/92/66
f 66/93/60 65/94/63 71/95/67
f 68/96/68 67/90/64 74/97/69
f 65/94/63 64/98/61 70/99/70
f 67/100/64 66/93/60 73/101/71
f 72/102/72 71/103/67 77/104/73
f 74/97/69 73/105/71 80/106/74
f 71/103/67 70/107/70 76/108/75
f 73/109/71 72/102/72 79/110/76
f 70/111/70 69/92/66 75/112/77
f 80/106/74 79/113/76 85/114/78
f 77/104/73 76/108/75 83/115/79
f 79/110/76 78/116/80 84/117/81
f 76/118/75 75/112/77 82/119/82
f 78/116/80 77/104/73 83/115/79
f 47/120/46 88/121/83 53/76/53
f 49/122/84 48/67/45 55/82/58
f 45/123/49 87/124/85 51/78/51
f 88/121/83 46/70/48 53/76/53
f 87/124/85 62/125/43 50/79/55
f 49/122/84 55/82/58 61/83/59
f 50/79/55 62/125/43 56/80/56
f 49/122/84 61/83/59 68/96/68
f 56/80/56 62/125/43 63/91/65
f 49/122/84 68/96/68 74/97/69
f 63/91/65 62/125/43 69/92/66
f 69/92/66 62/125/43 75/112/77
f 49/122/84 74/97/69 80/106/74
f 75/112/77 62/125/43 81/126/86
f 49/122/84 80/106/74 86/127/87
f 81/126/86 62/125/43 87/124/85
f 83/115/79 82/128/82 45/129/49
f 85/130/78 84/117/81 47/131/46
f 49/122/84 86/127/87 48/67/45
f 82/119/82 81/126/86 87/124/85
f 84/117/81 83/115/79 88/132/83
f 86/127/87 85/114/78 48/67/45
f 92/133/88 91/134/89 98/135/90
f 90/136/91 89/137/92 96/138/93
f 96/138/93 95/139/94 101/140/95
f 98/141/90 97/142/96 104/143/97
f 95/144/94 94/145/98 100/146/99
f 97/142/96 96/138/93 103/147/100
f 99/148/101 98/135/90 105/149/102
f 104/143/97 103/147/100 110/150/103
f 101/151/95 100/146/99 108/152/104
f 103/147/100 102/153/105 110/150/103
f 105/149/102 104/154/97 111/155/106
f 102/153/105 101/140/95 109/156/107
f 108/152/104 107/157/108 114/158/109
f 110/159/103 109/160/107 115/161/110
f 112/162/111 111/155/106 117/163/112
f 109/160/107 108/164/104 115/161/110
f 111/165/106 110/159/103 116/166/113
f 116/167/113 115/168/110 122/169/114
f 118/170/115 117/163/112 123/171/116
f 115/161/110 114/172/109 120/173/117
f 117/174/112 116/167/113 122/169/114
f 114/158/109 113/175/118 119/176/119
f 124/177/120 123/171/116 130/178/121
f 121/179/122 120/180/117 127/181/123
f 123/182/116 122/169/114 129/183/124
f 120/184/117 119/176/119 126/185/125
f 122/169/114 121/179/122 128/186/126
f 91/187/89 132/188/127 97/142/96
f 93/189/128 92/133/88 99/148/101
f 89/190/92 131/191/129 95/144/94
f 132/188/127 90/136/91 96/138/93
f 131/191/129 106/192/130 94/145/98
f 93/189/128 99/148/101 105/149/102
f 94/145/98 106/192/130 100/146/99
f 93/189/128 105/149/102 112/162/111
f 100/146/99 106/192/130 107/157/108
f 93/189/128 112/162/111 118/170/115
f 107/157/108 106/192/130 113/175/118
f 113/175/118 106/192/130 119/176/119
f 93/189/128 118/170/115 124/177/120
f 119/176/119 106/192/130 125/193/131
f 93/189/128 124/177/120 130/178/121
f 125/193/131 106/192/130 131/191/129
f 127/181/123 126/194/125 89/195/92
f 129/183/124 128/186/126 91/196/89
f 93/189/128 130/178/121 92/133/88
f 126/185/125 125/193/131 131/191/129
f 128/186/126 127/181/123 90/197/91
f 130/178/121 129/198/124 92/133/88
f 138/199/132 137/200/133 142/201/134
f 137/200/133 136/202/135 141/203/136
f 136/202/135 135/204/137 140/205/138
f 142/206/134 141/207/136 146/208/139
f 140/209/138 139/210/140 143/211/141
f 141/207/136 140/209/138 144/212/142
f 146/213/139 145/214/143 150/215/144
f 144/216/142 143/217/141 147/218/145
f 145/214/143 144/216/142 149/219/146
f 150/220/144 149/221/146 153/222/147
f 148/223/148 147/224/145 152/225/149
f 149/221/146 148/223/148 153/222/147
f 134/226/150 154/227/151 138/228/132
f 154/227/151 153/229/147 138/228/132
f 153/230/147 152/231/149 137/232/133
f 151/233/152 133/234/153 135/235/137
f 152/231/149 151/236/152 136/237/135
f 134/226/150 138/228/132 142/238/134
f 135/235/137 133/234/153 139/239/140
f 134/226/150 142/238/134 146/240/139
f 139/239/140 133/234/153 143/241/141
f 134/226/150 146/240/139 150/242/144
f 143/241/141 133/234/153 147/243/145
f 134/226/150 150/242/144 154/227/151
f 147/243/145 133/234/153 151/233/152
f 11/15/13 4/1/1 10/3/3
f 1/5/5 7/7/7 8/6/6
f 7/7/7 13/244/12 14/8/8
f 16/245/14 10/9/3 15/11/10
f 6/13/11 12/20/16 13/14/12
f 8/6/6 14/8/8 15/11/10
f 17/24/19 11/15/13 16/16/14
f 23/34/20 16/17/14 22/19/15
f 12/20/16 19/27/21 20/21/17
f 22/19/15 15/18/10 21/23/18
f 24/30/24 17/24/19 23/25/20
f 13/26/12 20/32/17 21/23/18
f 26/45/26 20/21/17 25/28/22
f 28/35/27 22/19/15 27/29/23
f 30/39/29 24/30/24 29/31/25
f 27/29/23 21/23/18 26/33/26
f 29/246/25 23/34/20 28/35/27
f 34/50/36 28/36/27 33/38/28
f 29/31/25 35/47/32 36/40/30
f 33/38/28 27/37/23 32/42/31
f 28/36/27 34/50/36 35/44/32
f 32/52/31 26/45/26 31/46/33
f 35/47/32 41/66/37 42/48/34
f 39/247/44 33/38/28 38/49/35
f 34/50/36 40/54/39 41/51/37
f 38/65/35 32/52/31 37/53/38
f 33/38/28 39/247/44 40/54/39
f 10/9/3 3/55/2 9/10/9
f 43/59/42 6/13/11 7/12/7
f 2/4/4 8/6/6 9/10/9
f 2/4/4 39/61/44 1/5/5
f 40/64/39 44/56/40 3/55/2
f 1/58/5 38/65/35 43/59/42
f 39/61/44 2/4/4 44/56/40
f 41/66/37 3/2/2 4/1/1
f 55/82/58 48/67/45 54/69/47
f 45/71/49 51/73/51 52/72/50
f 58/87/62 52/72/50 57/74/52
f 53/76/53 59/81/57 60/77/54
f 57/85/52 51/78/51 56/80/56
f 52/72/50 58/87/62 59/81/57
f 54/69/47 60/89/54 61/83/59
f 67/248/64 60/77/54 66/84/60
f 56/80/56 63/91/65 64/86/61
f 66/84/60 59/81/57 65/88/63
f 68/96/68 61/83/59 67/90/64
f 57/74/52 64/249/61 65/88/63
f 70/111/70 64/86/61 69/92/66
f 72/250/72 66/93/60 71/95/67
f 67/90/64 73/105/71 74/97/69
f 71/95/67 65/94/63 70/99/70
f 66/93/60 72/250/72 73/101/71
f 78/116/80 72/102/72 77/104/73
f 73/105/71 79/113/76 80/106/74
f 77/104/73 71/103/67 76/108/75
f 72/102/72 78/116/80 79/110/76
f 76/118/75 70/111/70 75/112/77
f 86/127/87 80/106/74 85/114/78
f 76/108/75 82/128/82 83/115/79
f 85/130/78 79/110/76 84/117/81
f 75/112/77 81/126/86 82/119/82
f 84/117/81 78/116/80 83/115/79
f 54/75/47 47/120/46 53/76/53
f 87/124/85 50/79/55 51/78/51
f 46/70/48 52/72/50 53/76/53
f 46/251/48 83/115/79 45/129/49
f 84/117/81 88/132/83 47/131/46
f 45/123/49 82/119/82 87/124/85
f 83/115/79 46/251/48 88/132/83
f 85/114/78 47/68/46 48/67/45
f 99/148/101 92/133/88 98/135/90
f 89/137/92 95/139/94 96/138/93
f 102/153/105 96/138/93 101/140/95
f 97/142/96 103/147/100 104/143/97
f 101/151/95 95/144/94 100/146/99
f 96/138/93 102/153/105 103/147/100
f 98/135/90 104/154/97 105/149/102
f 111/252/106 104/143/97 110/150/103
f 100/146/99 107/157/108 108/152/104
f 102/153/105 109/156/107 110/150/103
f 112/162/111 105/149/102 111/155/106
f 101/140/95 108/253/104 109/156/107
f 107/157/108 113/175/118 114/158/109
f 116/166/113 110/159/103 115/161/110
f 118/170/115 112/162/111 117/163/112
f 108/164/104 114/172/109 115/161/110
f 117/254/112 111/165/106 116/166/113
f 115/168/110 121/179/122 122/169/114
f 124/177/120 118/170/115 123/171/116
f 121/255/122 115/161/110 120/173/117
f 123/182/116 117/174/112 122/169/114
f 120/184/117 114/158/109 119/176/119
f 123/171/116 129/198/124 130/178/121
f 120/180/117 126/194/125 127/181/123
f 122/169/114 128/186/126 129/183/124
f 119/176/119 125/193/131 126/185/125
f 121/179/122 127/181/123 128/186/126
f 98/141/90 91/187/89 97/142/96
f 131/191/129 94/145/98 95/144/94
f 97/142/96 132/188/127 96/138/93
f 90/197/91 127/181/123 89/195/92
f 128/186/126 132/256/127 91/196/89
f 89/190/92 126/185/125 131/191/129
f 132/256/127 128/186/126 90/197/91
f 129/198/124 91/134/89 92/133/88
f 137/200/133 141/203/136 142/201/134
f 136/202/135 140/205/138 141/203/136
f 135/204/137 139/257/140 140/205/138
f 141/207/136 145/258/143 146/208/139
f 144/212/142 140/209/138 143/211/141
f 145/258/143 141/207/136 144/212/142
f 145/214/143 149/219/146 150/215/144
f 148/259/148 144/216/142 147/218/145
f 144/216/142 148/259/148 149/219/146
f 154/260/151 150/220/144 153/222/147
f 147/224/145 151/261/152 152/225/149
f 148/223/148 152/225/149 153/222/147
f 153/229/147 137/262/133 138/228/132
f 152/231/149 136/237/135 137/232/133
f 151/236/152 135/263/137 136/237/135
